<svg width="77" height="78" viewBox="0 0 77 78" fill="none" xmlns="http://www.w3.org/2000/svg">
<g clip-path="url(#clip0_1_858)">
<path d="M77 35.5185C77 35.0262 76.7889 34.6042 76.4372 34.2877L60.9598 17.7241C60.9598 17.7241 60.8543 17.6538 60.8191 17.5835C60.5025 17.1263 60.01 16.8801 59.4824 16.8801H17.5176C16.9899 16.8801 16.4623 17.1615 16.1809 17.5835C16.1457 17.6186 16.0754 17.6538 16.0402 17.7241L0.457277 34.3932C0.105518 34.7449 -0.0351857 35.2372 0.0351661 35.6944C-9.81241e-06 36.1515 0.140694 36.6087 0.457277 36.9604L36.9698 76.9802C37.1105 77.2967 37.3216 77.5781 37.6382 77.7539C37.8844 77.8946 38.1658 77.9649 38.4472 77.9649C38.4472 77.9649 38.4472 77.9649 38.4824 77.9649C38.7638 77.9649 39.0452 77.8946 39.2914 77.7539C39.608 77.5781 39.8543 77.2967 39.9598 76.9802L76.4724 36.9604C76.7889 36.6087 76.9296 36.1515 76.8945 35.6944C76.8945 35.624 76.8945 35.5537 76.8945 35.4834M28.1055 37.523H48.8593L38.7638 69.8765L38.4824 70.7909L37.8844 68.927L28.1055 37.523ZM29.1256 33.8657L38.4824 21.1353L47.8392 33.8657H29.0904H29.1256ZM54.3819 33.8657L60.2211 21.698L71.5829 33.8657H54.3819ZM56.8794 20.1506L51.1457 32.3535L42.1055 20.0451L56.8794 20.1506ZM34.8945 20.01L25.8543 32.3184L20.1206 20.1155L34.8945 20.01ZM16.7789 21.7331L22.6181 33.9009H5.41708L16.7789 21.7331ZM5.34672 37.523H24.3417L34.6834 69.6655L5.34672 37.523ZM42.3166 69.7007L52.6583 37.5582H71.6533L42.3166 69.7007Z" fill="#195191"/>
<path d="M38.4824 9.17854C37.5678 9.17854 36.8292 8.44004 36.8292 7.5257V1.65284C36.8292 0.738503 37.5678 0 38.4824 0C39.397 0 40.1357 0.738503 40.1357 1.65284V7.56087C40.1357 8.4752 39.397 9.21371 38.4824 9.21371M69.5427 21.4518C69.9648 21.4518 70.3869 21.2759 70.7035 20.9594L74.8191 16.8801C75.4523 16.2471 75.4523 15.1921 74.8191 14.5591C74.1859 13.9261 73.1307 13.9261 72.4975 14.5591L68.4171 18.6384C67.7839 19.2714 67.7839 20.3264 68.4171 20.9594C68.7337 21.2759 69.1558 21.4518 69.5779 21.4518M55.2613 12.1677C55.4724 12.2381 55.6834 12.2732 55.8945 12.2732C56.5276 12.2732 57.1608 11.8864 57.407 11.2534L59.6231 5.73219C59.9749 4.88819 59.5528 3.93868 58.7085 3.58702C57.8643 3.23535 56.9146 3.65735 56.5628 4.50135L54.3116 10.0225C53.9598 10.8665 54.3819 11.8161 55.2261 12.1677M6.29649 20.9594C6.61307 21.2759 7.03518 21.4518 7.45729 21.4518C7.8794 21.4518 8.30151 21.2759 8.6181 20.9594C9.25126 20.3264 9.25126 19.2714 8.6181 18.6384L4.53769 14.5239C3.90453 13.8909 2.84925 13.8909 2.21609 14.5239C1.58292 15.1569 1.58292 16.2119 2.21609 16.8449L6.29649 20.9243V20.9594ZM19.6633 11.4292C19.9096 12.0622 20.5427 12.4491 21.1759 12.4491C21.3869 12.4491 21.598 12.4139 21.809 12.3084C22.6533 11.9567 23.0402 11.0072 22.7236 10.1632L20.4372 4.50135C20.0854 3.65735 19.1357 3.27051 18.2915 3.58702C17.4472 3.93868 17.0603 4.88819 17.3769 5.73219L19.6633 11.394V11.4292Z" fill="#04A9E0"/>
</g>
<defs>
<clipPath id="clip0_1_858">
<rect width="77" height="78" fill="white"/>
</clipPath>
</defs>
</svg>
