<svg width="81" height="81" viewBox="0 0 81 81" fill="none" xmlns="http://www.w3.org/2000/svg">
<g clip-path="url(#clip0_1_861)">
<path d="M75.6094 20.3293C75.1161 19.4837 74.0239 19.1666 73.1783 19.6599C72.3327 20.1531 72.0509 21.2453 72.5089 22.0909C75.7151 27.6577 77.4062 33.9996 77.4062 40.4824C77.4062 60.8469 60.8469 77.4063 40.4824 77.4063C33.6472 77.4063 26.9882 75.5037 21.2101 71.9804L22.9365 69.9369C23.2888 69.5494 23.0422 68.9152 22.5489 68.8447L13.1418 67.1183C12.6133 67.0126 12.1905 67.5059 12.3667 67.9991L15.5728 77.0187C15.749 77.512 16.3832 77.6177 16.7355 77.2301L18.8847 74.7286C25.3323 78.7803 32.8369 80.9648 40.4824 80.9648C62.8199 80.9648 80.9648 62.8199 80.9648 40.4824C80.9648 33.4006 79.0974 26.4245 75.6094 20.3293Z" fill="#195191"/>
<path d="M3.5585 40.4824C3.5585 20.1178 20.1179 3.55848 40.4824 3.55848C48.2336 3.55848 55.6677 5.9543 61.8686 10.3936L59.8604 12.5781C59.5081 12.9656 59.7194 13.5646 60.2127 13.7055L69.5494 15.7842C70.0426 15.8899 70.5007 15.4319 70.3245 14.9386L67.4706 5.77814C67.3297 5.28488 66.6955 5.14395 66.3432 5.53151L64.2997 7.7864C57.3941 2.74813 49.1144 0.0352074 40.4824 0.0352074C18.1448 -2.53357e-05 0 18.1801 0 40.4824C0 48.6916 2.43106 56.5837 7.04654 63.3132C7.39887 63.8064 7.96259 64.0883 8.52632 64.0883C8.87864 64.0883 9.23097 63.9826 9.54807 63.7712C10.3584 63.2075 10.5698 62.1152 10.0061 61.3049C5.77816 55.1744 3.5585 47.9517 3.5585 40.4824Z" fill="#195191"/>
<path d="M41.6098 67.1887V61.3049C43.5124 61.2696 45.274 61.023 46.93 60.565C48.5859 60.107 50.0305 59.4023 51.2988 58.451C52.532 57.535 53.5185 56.3371 54.2232 54.9278C54.9278 53.5184 55.2801 51.8273 55.2801 49.8542C55.2801 48.0574 54.963 46.5424 54.3641 45.274C53.7651 44.0056 52.8843 42.9486 51.7569 42.103C50.6294 41.2575 49.2906 40.5176 47.6699 39.9186C46.0492 39.3197 44.2523 38.7912 42.244 38.2979L41.187 38.0865V26.4597C42.2793 26.5302 43.301 26.7064 44.3228 26.9882C45.3445 27.2701 46.2958 27.6224 47.1414 28.01C47.987 28.3975 48.7621 28.8203 49.3963 29.2431C50.0305 29.6659 50.5237 30.0887 50.876 30.441L53.7299 25.2618C52.1797 24.0991 50.3475 23.1126 48.3041 22.267C46.2606 21.4567 44.0057 20.9634 41.6098 20.8225V15.15H38.7208V20.8225C36.8534 20.9634 35.1623 21.351 33.612 21.9147C32.0618 22.5137 30.7229 23.2888 29.5603 24.3105C28.3976 25.3323 27.5168 26.5654 26.8826 27.9747C26.2484 29.384 25.9313 31.04 25.9313 32.8721C25.9313 34.4575 26.1779 35.7964 26.6712 36.8886C27.1644 37.9808 27.9043 38.9673 28.8556 39.7777C29.8421 40.588 31.04 41.2927 32.5198 41.8917C33.9996 42.4906 35.6907 43.0191 37.6638 43.5476C37.8752 43.6181 38.1218 43.6885 38.3684 43.759C38.6151 43.8295 38.8617 43.8999 39.0731 43.9704V55.5972C37.7342 55.4562 36.4306 55.1744 35.1975 54.8221C33.9643 54.4345 32.8017 54.0117 31.7799 53.5184C30.7229 53.0252 29.8069 52.5319 29.0318 52.0034C28.2566 51.4749 27.6577 50.9817 27.2349 50.5589L24.381 55.9495C26.3893 57.535 28.609 58.7329 31.0048 59.6137C33.4358 60.4945 35.9726 61.023 38.6503 61.1992V67.224H41.5394L41.6098 67.1887ZM41.187 44.4989C43.5476 45.1683 45.3445 45.9434 46.6481 46.789C47.9517 47.6346 48.6211 48.8677 48.6211 50.5237C48.6211 52.1796 47.987 53.4127 46.6833 54.2936C45.415 55.1391 43.5829 55.5972 41.187 55.6324V44.5341V44.4989ZM34.1053 35.4088C33.0131 34.6337 32.4493 33.4358 32.4493 31.8856C32.4493 30.3353 32.9778 28.9965 34.07 28.0452C35.1623 27.0939 36.8182 26.5654 39.1083 26.4597V37.5228C36.8887 36.9238 35.1975 36.2192 34.1053 35.4441" fill="#04A9E0"/>
</g>
<defs>
<clipPath id="clip0_1_861">
<rect width="81" height="81" fill="white"/>
</clipPath>
</defs>
</svg>
