<svg viewBox="0 0 203 50" fill="none" xmlns="http://www.w3.org/2000/svg">
<path d="M34.4675 15.4337C32.9115 15.4337 31.1429 16.6626 30.5169 18.1807L24.6943 32.1807C24.0683 33.6988 24.8158 34.9277 26.3657 34.9277H34.2365C35.7924 34.9277 37.5611 33.6988 38.1871 32.1807L44.0036 18.1807C44.6296 16.6626 43.882 15.4337 42.3322 15.4337H34.4675Z" fill="#1B5091"/>
<path d="M66.4369 0.777096H58.5114C56.9555 0.777096 55.1807 2.00601 54.5547 3.52408L38.0838 42.9518C36.5461 46.6084 33.4707 49.5723 33.4707 49.5723H46.064C47.6199 49.5723 49.3946 48.3434 50.0207 46.8253L68.1022 3.52408C68.7343 2.00601 67.9928 0.777096 66.4308 0.777096H66.4369Z" fill="#1B5091"/>
<path d="M2.25488 49.5723H10.1804C11.7363 49.5723 13.511 48.3434 14.1371 46.8253L30.608 7.39758C32.1457 3.74095 35.2211 0.783119 35.2211 0.783119H22.6278C21.0719 0.783119 19.2972 2.01204 18.6711 3.53011L0.589549 46.8313C-0.036469 48.3494 0.705028 49.5783 2.26096 49.5783L2.25488 49.5723Z" fill="#1B5091"/>
<path d="M91.1008 0.771095H94.1276V21.7289H91.1008V12.6084H79.2186V21.7289H76.1918V0.771095H79.2186V9.83134H91.1008V0.771095Z" fill="white"/>
<path d="M106.654 0.650612H108.781L118.263 21.7289H115.163L112.343 15.5181H103.323L100.679 21.7289H97.5676L106.648 0.650612H106.654ZM111.103 12.8494L107.693 5.25905L104.527 12.8494H111.103Z" fill="white"/>
<path d="M138.496 0.771095H141.371V21.7289H138.769L124.632 5.59037V21.7289H121.788V0.771095H124.237L138.496 17.0482V0.771095Z" fill="white"/>
<path d="M145.212 0.740973H162.874V3.40965H155.502V21.7289H152.457V3.40965H145.206V0.740973H145.212Z" fill="white"/>
<path d="M166.849 0.771095H178.834V3.43977H169.876V9.83134H178.531V12.5181H169.876V19.0301H179.126V21.6988H166.849V0.771095Z" fill="white"/>
<path d="M201.687 16.8675V20.1687C199.469 21.3675 196.904 21.9699 193.999 21.9699C191.641 21.9699 189.635 21.5 187.988 20.5603C186.341 19.6205 185.04 18.3253 184.086 16.6747C183.125 15.0241 182.645 13.241 182.645 11.3193C182.645 8.27109 183.745 5.70483 185.939 3.62049C188.134 1.54218 190.838 0.50001 194.059 0.50001C196.278 0.50001 198.746 1.07832 201.462 2.2229V5.44579C198.989 4.0482 196.576 3.34338 194.211 3.34338C191.847 3.34338 189.781 4.10242 188.182 5.61447C186.584 7.12652 185.781 9.03013 185.781 11.3072C185.781 13.5843 186.565 15.5 188.14 16.9759C189.714 18.4518 191.726 19.1988 194.181 19.1988C196.636 19.1988 199.244 18.4217 201.687 16.8615V16.8675Z" fill="white"/>
<path d="M76.2526 29.2048H93.3982V31.7952H86.2446V49.5723H83.2907V31.7952H76.2526V29.2048Z" fill="white"/>
<path d="M96.4067 49.5723V29.2289H101.549C103.627 29.2289 105.274 29.741 106.49 30.759C107.712 31.7771 108.319 33.1566 108.319 34.8916C108.319 36.0783 108.021 37.1024 107.426 37.9639C106.83 38.8253 105.973 39.4759 104.855 39.8976C105.511 40.3253 106.15 40.9096 106.782 41.6446C107.414 42.3795 108.289 43.6687 109.425 45.506C110.143 46.6627 110.714 47.5301 111.146 48.1145L112.233 49.5723H108.739L107.845 48.2349C107.815 48.1868 107.76 48.1024 107.669 47.988L107.098 47.1868L106.186 45.6988L105.201 44.1084C104.594 43.2711 104.041 42.6084 103.536 42.1145C103.032 41.6205 102.576 41.2651 102.169 41.0482C101.761 40.8313 101.081 40.7229 100.114 40.7229H99.3484V49.5783H96.4128L96.4067 49.5723ZM100.23 31.7048H99.3484V38.1265H100.467C101.956 38.1265 102.977 38 103.53 37.747C104.083 37.494 104.515 37.1145 104.825 36.6024C105.135 36.0904 105.286 35.5121 105.286 34.8615C105.286 34.2109 105.116 33.6386 104.77 33.1205C104.429 32.6024 103.943 32.2349 103.323 32.0181C102.703 31.8072 101.67 31.6988 100.23 31.6988V31.7048Z" fill="white"/>
<path d="M121.192 29.1145H123.259L132.461 49.5723H129.452L126.717 43.5422H117.959L115.394 49.5723H112.373L121.186 29.1145H121.192ZM125.514 40.9518L122.201 33.5843L119.132 40.9518H125.514Z" fill="white"/>
<path d="M134.892 49.5422V29.2289H141.808C144.598 29.2289 146.81 29.6446 148.433 30.4759C150.056 31.3072 151.35 32.5241 152.311 34.1386C153.271 35.747 153.751 37.506 153.751 39.4096C153.751 40.7711 153.49 42.0723 152.961 43.3133C152.432 44.5542 151.679 45.6506 150.7 46.5904C149.703 47.5602 148.542 48.2952 147.218 48.7892C146.446 49.0904 145.735 49.2892 145.09 49.3916C144.446 49.494 143.212 49.5422 141.389 49.5422H134.898H134.892ZM141.498 31.8253H137.827V46.9518H141.589C143.06 46.9518 144.197 46.8494 145.011 46.6506C145.826 46.4518 146.5 46.1988 147.047 45.8916C147.588 45.5843 148.087 45.2108 148.536 44.7651C149.983 43.3072 150.712 41.4699 150.712 39.247C150.712 37.0241 149.971 35.2831 148.482 33.9036C147.935 33.3916 147.303 32.9699 146.592 32.6386C145.88 32.3072 145.206 32.0904 144.574 31.9819C143.935 31.8735 142.914 31.8193 141.504 31.8193L141.498 31.8253Z" fill="white"/>
<path d="M157.574 29.2289H169.207V31.8193H160.51V38.0241H168.915V40.6325H160.51V46.9518H169.487V49.5422H157.574V29.2289Z" fill="white"/>
<path d="M172.854 49.5723V29.2289H177.996C180.074 29.2289 181.721 29.741 182.937 30.759C184.159 31.7771 184.766 33.1566 184.766 34.8916C184.766 36.0783 184.469 37.1024 183.873 37.9639C183.277 38.8253 182.42 39.4759 181.302 39.8976C181.958 40.3253 182.597 40.9096 183.229 41.6446C183.861 42.3795 184.736 43.6687 185.873 45.506C186.59 46.6627 187.161 47.5301 187.593 48.1145L188.681 49.5723H185.186L184.292 48.2349C184.262 48.1868 184.207 48.1024 184.116 47.988L183.545 47.1868L182.633 45.6988L181.649 44.1084C181.041 43.2711 180.488 42.6084 179.983 42.1145C179.479 41.6205 179.023 41.2651 178.616 41.0482C178.208 40.8313 177.528 40.7229 176.561 40.7229H175.796V49.5783H172.86L172.854 49.5723ZM176.677 31.7048H175.796V38.1265H176.914C178.403 38.1265 179.424 38 179.977 37.747C180.53 37.494 180.962 37.1145 181.272 36.6024C181.582 36.0904 181.734 35.5121 181.734 34.8615C181.734 34.2109 181.563 33.6386 181.217 33.1205C180.877 32.6024 180.39 32.2349 179.77 32.0181C179.151 31.8072 178.117 31.6988 176.677 31.6988V31.7048Z" fill="white"/>
</svg>
